<svg data-v-18f51882="" xmlns="http://www.w3.org/2000/svg" fill="none" viewBox="0 0 114 32" class="h-8"><g fill="#fff" clip-path="url(#clip0_7883_1032)"><path fill-rule="evenodd" d="M0 26.353v-16.01l3.248 2.822a3.77 3.77 0 0 1 1.296 2.842v10.346zm18.824-3.895-3.249-2.822a3.77 3.77 0 0 1-1.295-2.842V6.448h4.544zM9.411 6.503v7.474c0 1.03.422 2.015 1.168 2.726l1.233 1.174a6.9 6.9 0 0 1 2.142 4.998v3.48H9.412l.054-4.87-.034-2.633a3.76 3.76 0 0 0-1.168-2.678L7.01 14.979A6.9 6.9 0 0 1 4.868 9.98V6.5z" clip-rule="evenodd"></path><path d="M111.028 25.726V7.403h3.334v18.323zM90.162 25.726V10.94q0-.967.484-1.756a3.73 3.73 0 0 1 1.272-1.298 3.4 3.4 0 0 1 1.782-.483h11.222q.968 0 1.782.483t1.298 1.298q.483.789.484 1.756v14.786H105.1v-6.159H93.522v6.159zm3.36-9.518H105.1v-5.115a.24.24 0 0 0-.101-.204.32.32 0 0 0-.229-.102H93.827a.32.32 0 0 0-.229.102.28.28 0 0 0-.076.204zM77.22 25.726V10.787h-7.482V7.403h18.323v3.384h-7.456v14.939zM53.066 25.726a3.43 3.43 0 0 1-1.781-.484 3.8 3.8 0 0 1-1.273-1.272 3.43 3.43 0 0 1-.483-1.782V10.94q0-.967.483-1.756a3.7 3.7 0 0 1 1.273-1.298 3.43 3.43 0 0 1 1.781-.483h11.248q.967 0 1.756.483.815.483 1.298 1.298.484.789.484 1.756v11.248q0 .967-.484 1.782-.483.789-1.298 1.272a3.3 3.3 0 0 1-1.755.484zm.127-3.385h10.943a.37.37 0 0 0 .23-.076.32.32 0 0 0 .101-.23V11.094a.24.24 0 0 0-.102-.204.32.32 0 0 0-.229-.102H53.193a.32.32 0 0 0-.229.102.28.28 0 0 0-.076.204v10.943q0 .126.076.229.102.076.23.076M28.405 25.726V7.403h3.69l11.249 13.386V7.403h3.384v18.323h-3.69L31.765 12.314v13.412z"></path></g></svg>