<svg width="2053" height="539" viewBox="0 0 2053 539" fill="none" xmlns="http://www.w3.org/2000/svg">
<path d="M1238.65 414.04V46.418H1304.92V414.04H1238.65Z" fill="white"/>
<path fill-rule="evenodd" clip-rule="evenodd" d="M1011.31 402.649C1031.68 414.385 1055.67 420.253 1083.28 420.253C1115.04 420.253 1141.96 412.486 1164.06 396.953C1186.48 381.432 1201.49 360.224 1209.09 333.329H1139.79C1135.79 343.429 1129.38 351.52 1120.56 357.602C1110.9 364.161 1098.64 367.44 1083.8 367.44C1064.13 367.44 1048.25 361.399 1036.17 349.318C1024.43 336.891 1017.87 318.596 1016.49 294.433H1212.73V279.418C1212.73 248.351 1207.38 221.772 1196.68 199.68C1185.98 177.588 1170.61 160.674 1150.59 148.938C1130.92 137.202 1107.96 131.333 1081.73 131.333C1054.81 131.333 1031.16 137.374 1010.79 149.456C990.774 161.537 975.24 178.451 964.194 200.198C953.149 221.599 947.626 246.798 947.626 275.793C947.626 304.789 953.149 330.16 964.194 351.907C975.24 373.653 990.946 390.567 1011.31 402.649ZM1144.38 249.904H1016.49C1019.25 228.503 1026.33 212.107 1037.72 200.716C1049.46 189.325 1064.13 183.629 1081.73 183.629C1099.33 183.629 1113.83 189.152 1125.22 200.198C1136.61 210.899 1143 227.467 1144.38 249.904Z" fill="white"/>
<path d="M669.808 137.547L770.774 414.04H849.476L950.443 137.547H880.543L810.125 347.247L739.708 137.547H669.808Z" fill="white"/>
<path fill-rule="evenodd" clip-rule="evenodd" d="M1394.67 402.649C1415.38 414.385 1439.37 420.253 1466.64 420.253C1493.91 420.253 1517.73 414.385 1538.09 402.649C1558.46 390.567 1574.16 373.653 1585.21 351.907C1596.6 330.16 1602.3 304.789 1602.3 275.793C1602.3 246.453 1596.6 221.081 1585.21 199.68C1574.16 177.933 1558.46 161.192 1538.09 149.456C1517.73 137.374 1493.91 131.333 1466.64 131.333C1439.37 131.333 1415.38 137.374 1394.67 149.456C1374.3 161.192 1358.42 177.933 1347.03 199.68C1335.99 221.081 1330.46 246.453 1330.46 275.793C1330.46 304.789 1335.99 330.16 1347.03 351.907C1358.42 373.653 1374.3 390.567 1394.67 402.649ZM1515.83 342.587C1504.44 358.465 1488.04 366.404 1466.64 366.404C1445.24 366.404 1428.67 358.465 1416.93 342.587C1405.2 326.708 1399.33 304.444 1399.33 275.793C1399.33 247.488 1405.2 225.396 1416.93 209.518C1428.67 193.294 1445.24 185.182 1466.64 185.182C1488.04 185.182 1504.44 193.294 1515.83 209.518C1527.56 225.396 1533.43 247.488 1533.43 275.793C1533.43 304.444 1527.56 326.708 1515.83 342.587Z" fill="white"/>
<path d="M1626.81 137.547H1688.94L1690.73 190.562C1695.14 175.398 1701.27 163.767 1709.13 155.669C1720.87 143.588 1736.75 137.547 1756.77 137.547H1782.14V194.502H1756.25C1742.1 194.502 1730.36 196.573 1721.04 200.716C1711.72 204.858 1704.64 211.416 1699.81 220.391C1695.32 229.021 1693.08 240.412 1693.08 254.564V414.04H1626.81V137.547Z" fill="white"/>
<path fill-rule="evenodd" clip-rule="evenodd" d="M1838.36 401.095C1855.28 413.867 1876.33 420.253 1901.53 420.253C1917.41 420.253 1931.39 417.837 1943.47 413.004C1955.9 407.826 1966.25 400.578 1974.54 391.258C1979.72 385.66 1984.1 379.377 1987.66 372.409L1989.04 414.04H2052.21V137.547H1985.93V176.898C1978.34 162.4 1967.29 151.182 1952.79 143.242C1938.64 135.303 1921.55 131.333 1901.53 131.333C1876.33 131.333 1855.1 137.892 1837.85 151.009C1820.93 163.781 1808.16 181.04 1799.53 202.787C1791.25 224.533 1787.1 248.869 1787.1 275.793C1787.1 302.718 1791.42 327.226 1800.05 349.318C1808.68 371.064 1821.45 388.324 1838.36 401.095ZM1959.01 354.495C1950.03 362.435 1937.6 366.404 1921.73 366.404C1906.88 366.404 1894.46 362.262 1884.45 353.978C1874.78 345.693 1867.53 334.647 1862.7 320.84C1858.21 306.687 1855.97 291.672 1855.97 275.793C1855.97 258.879 1858.21 243.691 1862.7 230.229C1867.53 216.422 1874.78 205.548 1884.45 197.609C1894.46 189.324 1906.88 185.182 1921.73 185.182C1937.26 185.182 1949.69 189.152 1959.01 197.091C1968.33 205.03 1975.06 215.904 1979.2 229.711C1983.69 243.173 1985.93 258.534 1985.93 275.793C1985.93 292.017 1983.69 307.205 1979.2 321.358C1975.06 335.165 1968.33 346.211 1959.01 354.495Z" fill="white"/>
<path fill-rule="evenodd" clip-rule="evenodd" d="M75.5561 172.656C75.5561 172.656 9.657 66.1791 83.2325 29.0052C129.91 8.51769 177.189 23.2149 201.777 35.9075C204.544 37.1668 206.978 38.3065 209.16 39.3285C225.635 47.0428 227.791 48.0524 250.776 43.2093C307.628 30.247 366.422 36.9872 408.699 54.6651C461.776 3.69978 580.886 1.30634 518.206 130.961C518.206 130.961 529.978 144.232 537.377 155.049C539.353 159.467 536.652 163.481 533.718 167.842C530.354 172.842 526.683 178.298 529.408 185.34C533.477 195.854 539.88 206.145 547.236 217.968C556.506 232.866 567.289 250.196 576.819 273.467C593.912 315.204 569.852 379.766 546.746 417.235C507.17 478.566 441.632 454.137 387.867 427.705C380.268 423.969 371.071 427.383 367.876 435.225L339.253 505.481C334.713 516.623 322.986 523.14 311.418 519.834C229.92 496.539 91.3994 414.357 19.9216 238.498C14.6588 225.55 21.5812 210.929 33.961 204.441C47.7125 197.234 64.5779 186.449 75.5561 172.656ZM539.448 128.02C543.356 132.758 548.307 138.994 552.305 144.839L553.223 146.181L553.887 147.666C557.604 155.979 556.09 163.668 553.879 168.932C552.293 172.708 549.792 176.379 548.551 178.2C548.381 178.45 548.235 178.665 548.118 178.841C547.623 179.584 547.26 180.165 546.997 180.607C550.435 188.836 555.629 197.197 562.667 208.529C563.59 210.014 564.545 211.551 565.531 213.146C574.259 227.251 584.437 244.347 593.556 266.612C604.292 292.828 601.505 324.007 594.361 351.5C587.088 379.49 574.521 406.651 562.14 426.728L562.043 426.885L561.943 427.041C550.451 444.849 536.478 457.281 520.503 464.818C504.616 472.315 487.86 474.45 471.504 473.432C440.809 471.523 409.471 458.313 383.198 445.553L356.002 512.305C348.386 530.997 327.89 543.351 306.448 537.223C220.395 512.627 77.0296 427.034 3.167 245.308C-6.2629 222.107 6.59012 198.366 25.5656 188.421C35.0934 183.428 45.22 177.087 53.3426 169.82C52.3177 167.818 51.2194 165.607 50.0792 163.212C44.7212 151.956 38.2231 136.203 34.1887 118.871C30.1965 101.72 28.2771 81.5958 33.5509 62.3529C39.0391 42.328 52.0161 24.5142 75.0767 12.8629L75.5146 12.6416L75.9638 12.4444C129.516 -11.0604 182.663 5.79303 209.666 19.6273C212.743 21.0306 215.09 22.1322 217.101 23.0763C219.314 24.1149 221.12 24.963 223.048 25.8127C226.293 27.2437 227.781 27.6951 228.812 27.894C230.723 28.2627 233.535 28.3545 246.906 25.5421C302.784 12.834 360.503 17.8998 405.066 33.8682C418.967 22.8539 435.315 14.5461 451.755 9.54876C471.633 3.50638 493.515 1.75919 512.424 7.87162C532.455 14.3469 548.291 29.565 552.787 53.8872C556.531 74.1448 552.069 98.8832 539.448 128.02Z" fill="url(#paint0_linear_434_315)"/>
<path d="M428.038 61.8376C439.353 51.6372 475.673 33.219 503.3 42.9445C468.18 44.5926 459.381 78.8313 428.038 61.8376Z" fill="url(#paint1_linear_434_315)"/>
<path d="M77.2255 243.89C71.7065 225.122 57.7971 206.037 34.4479 225.067C82.1465 349.757 166.642 416.23 166.642 416.23C121.653 369.013 92.3444 288.754 77.2255 243.89Z" fill="url(#paint2_linear_434_315)"/>
<path d="M274.665 329.573C297.944 350.002 341.699 351.367 407.57 348.736C377.621 365.425 328.804 364.875 328.804 364.875C350.853 379.804 396.129 397.187 442.771 399.668C489.413 402.149 523.65 389.744 523.579 347.606C523.579 303.648 447.148 254.815 274.665 329.573Z" fill="url(#paint3_linear_434_315)"/>
<path d="M565.802 302.592C556.488 309.106 545.949 325.668 542.723 345.99C528.718 428.698 572.454 346.876 565.802 302.592Z" fill="url(#paint4_linear_434_315)"/>
<path d="M395.926 408.1C432.137 427.338 504.314 459.977 532.972 405.241L530.823 403.01C529.732 401.877 528.04 401.582 526.612 402.243C495.886 416.469 449.481 421.389 395.926 408.1Z" fill="url(#paint5_linear_434_315)"/>
<path d="M423.942 192.124C432.429 215.548 443.002 242.59 452.303 260.044C457.488 269.774 467.506 275.337 478.459 276.603C526.008 282.102 540.914 277.687 550.282 273.416C554.513 271.487 556.809 266.713 554.222 262.85C554.222 262.85 517.332 201.426 499.093 177.481C489.092 162.848 477.225 147.72 509.156 148.293C420.659 56.7233 339.622 42.042 245.425 62.705C227.107 66.3046 217.109 63.6649 198.152 54.146C177.914 43.9075 149.117 32.3089 111.923 38.8676C138.388 56.1546 160.32 83.3354 175.65 107.05C194.89 136.811 227.511 158.671 262.852 156.042L355.208 149.174C384.026 147.03 414.099 164.954 423.942 192.124Z" fill="url(#paint6_linear_434_315)"/>
<path d="M299 171.599L228.971 175.809C94.0273 185.845 161.581 336.855 326.079 291.736C415.231 267.283 429.525 251.087 410.633 207.569C407.743 202.367 401.985 199.412 396.039 199.641C351.984 201.342 327.02 190.7 317.369 180.816C312.444 175.772 306.037 171.176 299 171.599Z" fill="url(#paint7_linear_434_315)"/>
<defs>
<linearGradient id="paint0_linear_434_315" x1="575.968" y1="0.726568" x2="65.4851" y2="595.054" gradientUnits="userSpaceOnUse">
<stop stop-color="#FF9E00"/>
<stop offset="1" stop-color="#FF6B3B"/>
</linearGradient>
<linearGradient id="paint1_linear_434_315" x1="575.968" y1="0.726568" x2="65.4851" y2="595.054" gradientUnits="userSpaceOnUse">
<stop stop-color="#FF9E00"/>
<stop offset="1" stop-color="#FF6B3B"/>
</linearGradient>
<linearGradient id="paint2_linear_434_315" x1="575.968" y1="0.726568" x2="65.4851" y2="595.054" gradientUnits="userSpaceOnUse">
<stop stop-color="#FF9E00"/>
<stop offset="1" stop-color="#FF6B3B"/>
</linearGradient>
<linearGradient id="paint3_linear_434_315" x1="575.968" y1="0.726568" x2="65.4851" y2="595.054" gradientUnits="userSpaceOnUse">
<stop stop-color="#FF9E00"/>
<stop offset="1" stop-color="#FF6B3B"/>
</linearGradient>
<linearGradient id="paint4_linear_434_315" x1="575.968" y1="0.726568" x2="65.4851" y2="595.054" gradientUnits="userSpaceOnUse">
<stop stop-color="#FF9E00"/>
<stop offset="1" stop-color="#FF6B3B"/>
</linearGradient>
<linearGradient id="paint5_linear_434_315" x1="575.968" y1="0.726568" x2="65.4851" y2="595.054" gradientUnits="userSpaceOnUse">
<stop stop-color="#FF9E00"/>
<stop offset="1" stop-color="#FF6B3B"/>
</linearGradient>
<linearGradient id="paint6_linear_434_315" x1="575.968" y1="0.726568" x2="65.4851" y2="595.054" gradientUnits="userSpaceOnUse">
<stop stop-color="#FF9E00"/>
<stop offset="1" stop-color="#FF6B3B"/>
</linearGradient>
<linearGradient id="paint7_linear_434_315" x1="575.968" y1="0.726568" x2="65.4851" y2="595.054" gradientUnits="userSpaceOnUse">
<stop stop-color="#FF9E00"/>
<stop offset="1" stop-color="#FF6B3B"/>
</linearGradient>
</defs>
</svg>
