<svg width="37" height="32" viewBox="0 0 37 32" fill="none" xmlns="http://www.w3.org/2000/svg">
<path fill-rule="evenodd" clip-rule="evenodd" d="M4.41237 -3.05176e-05H17.11C24.8338 -3.05176e-05 30.6885 4.15009 32.8665 10.1889H36.8219V13.8388H33.6994C33.7611 14.4239 33.7918 15.0119 33.7915 15.6003V15.69C33.7918 16.3517 33.7528 17.0128 33.6747 17.67H36.8219V21.3198H32.7912C30.5557 27.2747 24.7465 31.3851 17.11 31.3851H4.41237V21.3198H0V17.67H4.41237V13.8388H0V10.1889H4.41237V-3.05176e-05ZM7.96219 21.3198V28.1112H17.11C22.7552 28.1112 26.9494 25.3914 28.9017 21.3198H7.96219ZM29.9892 17.67H7.96219V13.8388H29.9949C30.0775 14.4524 30.1186 15.0708 30.1181 15.69V15.7796C30.1188 16.4119 30.0757 17.0435 29.9892 17.67ZM17.11 3.26886C22.7806 3.26886 26.9879 6.06052 28.9286 10.1891H7.96219V3.26886H17.11Z" fill="white"/>
</svg>
