<svg width="116" height="29" viewBox="0 0 116 29" fill="none" xmlns="http://www.w3.org/2000/svg">
<path d="M113.375 9.60399C113.459 9.35199 113.501 9.06639 113.501 8.74719C113.501 7.87359 113.274 6.89919 112.82 5.82399C112.383 4.73199 111.72 3.76598 110.829 2.92598C109.939 2.06918 108.981 1.64078 107.957 1.64078C106.478 1.64078 105.059 2.45559 103.698 4.08519C102.337 5.69799 101.657 7.20159 101.657 8.59599C101.657 11.788 103.437 13.384 106.999 13.384C109.082 13.384 110.661 12.8632 111.737 11.8216C110.577 11.7208 109.25 11.3176 107.755 10.612C106.26 9.88958 105.428 9.36878 105.26 9.04958L104.857 9.85598C104.605 10.36 104.353 10.612 104.101 10.612C103.597 10.612 103.345 10.36 103.345 9.85598C103.345 9.60398 103.421 9.35199 103.572 9.09999L105.21 5.92479C105.462 5.43759 105.68 5.03439 105.865 4.71519C106.067 4.39599 106.361 4.08518 106.747 3.78278C107.133 3.46358 107.537 3.30398 107.957 3.30398C108.813 3.30398 109.443 3.56439 109.847 4.08519C110.267 4.60598 110.477 5.21078 110.477 5.89958C110.477 6.57159 110.107 7.12599 109.368 7.56279C108.629 7.98279 107.679 8.19279 106.52 8.19279C107.024 8.57919 107.873 9.04119 109.065 9.57879C110.275 10.0996 111.417 10.36 112.493 10.36C112.493 9.85598 112.787 9.60399 113.375 9.60399ZM113.753 11.5444C113.349 12.5188 112.518 13.3252 111.258 13.9636C110.015 14.5852 108.595 14.896 106.999 14.896C104.681 14.896 102.959 14.3416 101.833 13.2328C100.707 12.124 100.145 10.5784 100.145 8.59599C100.145 7.75599 100.346 6.84878 100.749 5.87438C101.153 4.88318 101.69 3.96759 102.362 3.12759C103.051 2.27079 103.891 1.55678 104.882 0.985584C105.873 0.414385 106.957 0.128784 108.133 0.128784C109.326 0.128784 110.477 0.615985 111.585 1.59039C112.711 2.54799 113.559 3.68198 114.131 4.99238C114.719 6.30278 115.013 7.59639 115.013 8.87319C115.013 10.15 114.593 11.0404 113.753 11.5444ZM106.52 6.68079C107.075 6.68079 107.621 6.59678 108.158 6.42878C108.696 6.26078 108.965 6.05919 108.965 5.82399C108.965 5.15199 108.629 4.81598 107.957 4.81598C107.688 4.81598 107.318 5.23599 106.848 6.07598C106.797 6.17678 106.73 6.29438 106.646 6.42878C106.579 6.56318 106.537 6.64719 106.52 6.68079Z" fill="#00A8E8"/>
<path d="M69.5701 17.43C73.0421 13.958 74.7781 10.5 74.7781 7.056C74.7781 4.032 74.0781 2.52 72.6781 2.52C71.9501 2.52 71.2221 3.542 70.4941 5.586C69.7101 7.77 69.3181 10.5 69.3181 13.776C69.3181 15.148 69.4021 16.366 69.5701 17.43ZM84.6901 19.992C86.2581 18.816 87.5181 17.458 88.4701 15.918C89.4221 14.378 89.8981 12.908 89.8981 11.508C89.8981 10.108 89.7861 8.988 89.5621 8.148C89.3381 7.308 89.0581 6.72 88.7221 6.384C88.1061 5.768 87.5181 5.46 86.9581 5.46C86.5101 5.46 86.0901 5.726 85.6981 6.258C85.3341 6.762 85.0401 7.308 84.8161 7.896C84.2841 9.296 84.0181 11.228 84.0181 13.692C84.0181 16.156 84.2421 18.256 84.6901 19.992ZM68.4781 21.798C66.1821 23.674 63.8161 25.27 61.3801 26.586C60.0921 27.286 59.2101 27.636 58.7341 27.636C57.8941 27.636 57.4741 27.216 57.4741 26.376C57.4741 25.844 57.8521 25.438 58.6081 25.158C59.3641 24.878 60.5821 24.22 62.2621 23.184C63.9421 22.148 65.6781 20.874 67.4701 19.362C67.0221 17.738 66.7981 15.876 66.7981 13.776C66.7981 9.772 67.3581 6.482 68.4781 3.906C69.5981 1.302 70.9561 0 72.5521 0C75.7161 0 77.2981 2.282 77.2981 6.846C77.2981 11.41 75.0021 15.834 70.4101 20.118C71.3901 22.05 73.2661 23.016 76.0381 23.016C78.1941 23.016 80.3501 22.456 82.5061 21.336C81.8341 19.32 81.4981 16.66 81.4981 13.356C81.4981 10.052 82.0161 7.49 83.0521 5.67C84.0881 3.85 85.3481 2.94 86.8321 2.94C88.3161 2.94 89.6181 3.598 90.7381 4.914C91.8581 6.202 92.4181 8.316 92.4181 11.256C92.4181 13.244 91.8021 15.246 90.5701 17.262C89.3381 19.25 87.7001 20.944 85.6561 22.344C86.5521 23.94 87.5881 25.018 88.7641 25.578C89.9401 26.11 91.5781 26.376 93.6781 26.376C94.3781 26.376 95.4561 26.166 96.9121 25.746C98.3681 25.326 99.1381 25.116 99.2221 25.116C100.062 25.116 100.482 25.536 100.482 26.376C100.482 26.992 100.062 27.44 99.2221 27.72C96.8701 28.504 95.0221 28.896 93.6781 28.896C91.1581 28.896 89.1001 28.504 87.5041 27.72C85.9081 26.936 84.5781 25.578 83.5141 23.646C81.0501 24.906 78.5581 25.536 76.0381 25.536C72.4821 25.536 69.9621 24.29 68.4781 21.798Z" fill="#00A8E8"/>
<path d="M50.8834 8.06403C51.3314 8.06403 51.7934 8.27403 52.2694 8.69403C52.7454 9.08603 52.9834 9.50603 52.9834 9.95403C52.9834 10.374 52.7874 10.696 52.3954 10.92C52.0314 11.144 51.6254 11.256 51.1774 11.256C50.7294 11.256 50.3514 11.06 50.0434 10.668C49.7634 10.248 49.6234 9.80003 49.6234 9.32403C49.6234 8.48403 50.0434 8.06403 50.8834 8.06403ZM47.1034 23.688C45.5354 25.368 43.9394 26.572 42.3154 27.3C41.8114 27.524 41.4054 27.636 41.0974 27.636C40.2574 27.636 39.8374 27.216 39.8374 26.376C39.8374 25.844 40.2574 25.41 41.0974 25.074C41.5454 24.906 42.1334 24.57 42.8614 24.066C43.6174 23.562 44.1214 23.184 44.3734 22.932C44.6254 22.68 45.0594 22.218 45.6754 21.546C46.3194 20.874 46.8234 20.37 47.1874 20.034C47.5514 19.67 48.0414 19.306 48.6574 18.942C49.3014 18.578 49.8894 18.396 50.4214 18.396C51.5134 18.396 52.3534 18.788 52.9414 19.572C53.5294 20.356 53.8794 21.224 53.9914 22.176C54.2994 24.696 54.7894 25.956 55.4614 25.956C55.9934 25.956 56.6794 25.816 57.5194 25.536C58.3594 25.256 58.8214 25.116 58.9054 25.116C59.7454 25.116 60.1654 25.536 60.1654 26.376C60.1654 26.992 59.7454 27.44 58.9054 27.72C57.3934 28.224 56.1614 28.476 55.2094 28.476C54.2854 28.476 53.5294 28.084 52.9414 27.3C52.3534 26.516 52.0034 25.648 51.8914 24.696C51.5834 22.176 51.0934 20.916 50.4214 20.916C50.0574 20.916 49.6374 21.154 49.1614 21.63C48.7134 22.078 48.3494 22.442 48.0694 22.722C47.7894 22.974 47.4674 23.296 47.1034 23.688Z" fill="#00A8E8"/>
<path d="M42.5237 26.376C42.5237 27.496 41.2357 28.056 38.6597 28.056C37.4557 28.056 36.5177 27.79 35.8457 27.258C35.2017 26.726 34.8797 25.802 34.8797 24.486C34.8797 23.17 34.7677 22.036 34.5437 21.084C34.3197 20.132 34.0117 19.656 33.6197 19.656C32.4437 19.656 31.3237 20.748 30.2597 22.932C29.8117 23.828 29.3357 24.738 28.8317 25.662C28.3277 26.558 27.6557 27.328 26.8157 27.972C26.0037 28.588 25.0517 28.896 23.9597 28.896C21.4397 28.896 20.1797 26.46 20.1797 21.588C20.1797 18.088 20.5577 14.686 21.3137 11.382C22.0977 8.078 23.1757 5.362 24.5477 3.234C25.9477 1.078 27.4177 0 28.9577 0C30.4977 0 31.6597 0.560001 32.4437 1.68C33.2277 2.8 33.6197 4.256 33.6197 6.048C33.6197 7.812 33.1157 9.562 32.1077 11.298C31.1277 13.006 29.9237 14.392 28.4957 15.456C27.7957 16.016 27.2637 16.296 26.8997 16.296C26.0597 16.296 25.6397 15.876 25.6397 15.036C25.6397 14.7 26.1157 14.168 27.0677 13.44C28.0197 12.712 28.9297 11.676 29.7977 10.332C30.6657 8.96 31.0997 7.364 31.0997 5.544C31.0997 4.788 30.9317 4.102 30.5957 3.486C30.2597 2.842 29.7277 2.52 28.9997 2.52C28.1597 2.52 27.2497 3.402 26.2697 5.166C25.3177 6.902 24.4777 9.282 23.7497 12.306C23.0497 15.33 22.6997 18.438 22.6997 21.63C22.6997 24.794 23.1197 26.376 23.9597 26.376C25.1357 26.376 26.2557 25.284 27.3197 23.1C27.7677 22.204 28.2437 21.308 28.7477 20.412C29.2517 19.488 29.9097 18.718 30.7217 18.102C31.5617 17.458 32.5277 17.136 33.6197 17.136C36.1397 17.136 37.3997 19.516 37.3997 24.276C37.3997 25.116 37.8057 25.536 38.6177 25.536C39.4577 25.536 40.0877 25.466 40.5077 25.326C40.9277 25.186 41.1797 25.116 41.2637 25.116C42.1037 25.116 42.5237 25.536 42.5237 26.376Z" fill="#00A8E8"/>
<path d="M10.92 28.896H8.4C6.832 28.896 5.46 28.602 4.284 28.014C3.136 27.398 2.268 26.614 1.68 25.662C0.56 23.842 0 21.896 0 19.824C0 17.752 0.448 15.694 1.344 13.65C2.24 11.606 3.36 9.926 4.704 8.61C6.048 7.266 7.462 6.216 8.946 5.46C10.43 4.676 11.704 4.284 12.768 4.284C13.832 4.284 14.77 4.508 15.582 4.956C16.394 5.404 16.8 5.88 16.8 6.384C16.8 7.224 16.38 7.644 15.54 7.644C15.288 7.644 14.91 7.504 14.406 7.224C13.93 6.944 13.356 6.804 12.684 6.804C12.04 6.804 11.13 7.126 9.954 7.77C8.778 8.414 7.63 9.282 6.51 10.374C5.39 11.466 4.438 12.88 3.654 14.616C2.898 16.352 2.52 18.13 2.52 19.95C2.52 21.742 2.968 23.268 3.864 24.528C4.788 25.76 6.3 26.376 8.4 26.376H10.92C13.412 26.376 15.624 26.054 17.556 25.41C18.144 25.214 18.48 25.116 18.564 25.116C19.404 25.116 19.824 25.536 19.824 26.376C19.824 26.992 19.404 27.44 18.564 27.72C16.212 28.504 13.664 28.896 10.92 28.896Z" fill="#00A8E8"/>
</svg>
