<svg width="140" height="21" viewBox="0 0 140 21" fill="none" xmlns="http://www.w3.org/2000/svg">
<path d="M9.284 16.686V5.04799H1.914V3.706H17.996V5.04799H10.604V16.686H9.284ZM11.814 17.918V6.28H19.206V2.474H0.704V6.28H8.074V17.918H11.814ZM0.154 6.83V1.924H19.756L21.89 4.19V8.964H14.498V20.602H9.79L7.524 18.468V8.964H2.42L0.154 6.83ZM27.3876 3.706V10.196C27.3876 11.1493 27.5416 11.956 27.8496 12.616C28.1576 13.2613 28.5829 13.7893 29.1256 14.2C29.6829 14.596 30.3283 14.8893 31.0616 15.08C31.7949 15.256 32.5943 15.344 33.4596 15.344H35.8796C36.7303 15.344 37.5223 15.256 38.2556 15.08C39.0036 14.8893 39.6489 14.596 40.1916 14.2C40.7489 13.7893 41.1816 13.2613 41.4896 12.616C41.8123 11.956 41.9736 11.1493 41.9736 10.196V3.706H43.3596V10.196C43.3596 11.384 43.1689 12.3887 42.7876 13.21C42.4063 14.0313 41.8783 14.706 41.2036 15.234C40.5436 15.7473 39.7589 16.1213 38.8496 16.356C37.9403 16.576 36.9503 16.686 35.8796 16.686H33.4596C32.3889 16.686 31.3916 16.576 30.4676 16.356C29.5583 16.1213 28.7663 15.7473 28.0916 15.234C27.4316 14.706 26.9109 14.0313 26.5296 13.21C26.1629 12.3887 25.9796 11.384 25.9796 10.196V3.706H27.3876ZM24.7696 10.196C24.7696 11.5893 24.9823 12.7773 25.4076 13.76C25.8329 14.728 26.4269 15.52 27.1896 16.136C27.9669 16.752 28.8836 17.2067 29.9396 17.5C31.0103 17.7787 32.1836 17.918 33.4596 17.918H35.8796C37.1556 17.918 38.3216 17.7787 39.3776 17.5C40.4483 17.2067 41.3649 16.752 42.1276 16.136C42.9049 15.52 43.5063 14.728 43.9316 13.76C44.3569 12.7773 44.5696 11.5893 44.5696 10.196V2.474H40.7416V10.196C40.7416 10.944 40.6096 11.5673 40.3456 12.066C40.0816 12.5647 39.7296 12.968 39.2896 13.276C38.8496 13.5693 38.3363 13.782 37.7496 13.914C37.1629 14.046 36.5396 14.112 35.8796 14.112H33.4596C32.7996 14.112 32.1763 14.046 31.5896 13.914C31.0029 13.782 30.4896 13.562 30.0496 13.254C29.6096 12.946 29.2576 12.5427 28.9936 12.044C28.7443 11.5453 28.6196 10.9293 28.6196 10.196V2.474H24.7696V10.196ZM24.2196 1.924H29.1696L31.3036 4.19V12.396C31.3036 12.5573 31.3036 12.7113 31.3036 12.858C31.3183 13.0047 31.3403 13.144 31.3696 13.276C31.9856 13.4667 32.6823 13.562 33.4596 13.562H35.8796C36.4516 13.562 36.9943 13.5107 37.5076 13.408C38.0356 13.2907 38.4976 13.1 38.8936 12.836C39.2896 12.572 39.6049 12.2273 39.8396 11.802C40.0743 11.3767 40.1916 10.8413 40.1916 10.196V1.924H45.1196L47.2536 4.19V12.396C47.2536 13.8773 47.0263 15.1387 46.5716 16.18C46.1169 17.2213 45.4863 18.0647 44.6796 18.71C43.8729 19.37 42.9049 19.8467 41.7756 20.14C40.6463 20.448 39.4143 20.602 38.0796 20.602H35.6596C34.9116 20.602 34.1856 20.5653 33.4816 20.492C32.7923 20.4187 32.1323 20.294 31.5016 20.118C30.8856 19.9567 30.3136 19.7367 29.7856 19.458C29.2576 19.1793 28.7883 18.8347 28.3776 18.424C27.5416 17.7053 26.8523 17.0233 26.3096 16.378C25.7816 15.718 25.3636 15.058 25.0556 14.398C24.7476 13.738 24.5276 13.0707 24.3956 12.396C24.2783 11.7067 24.2196 10.9733 24.2196 10.196V1.924ZM63.3982 6.28C63.5742 6.28 63.7575 6.29466 63.9482 6.324C64.1388 6.35333 64.3148 6.40466 64.4762 6.47799C64.6375 6.55133 64.7695 6.654 64.8722 6.786C64.9895 6.918 65.0482 7.094 65.0482 7.314C65.0482 7.51933 64.9895 7.688 64.8722 7.82C64.7548 7.952 64.6082 8.05466 64.4322 8.128C64.2708 8.20133 64.0875 8.25266 63.8822 8.282C63.6915 8.31133 63.5228 8.326 63.3762 8.326H55.2362V6.28H63.3982ZM63.3762 9.536C63.7282 9.536 64.0728 9.49933 64.4102 9.426C64.7622 9.338 65.0775 9.206 65.3562 9.03C65.6348 8.854 65.8548 8.62666 66.0162 8.348C66.1922 8.05466 66.2802 7.71 66.2802 7.314C66.2802 6.90333 66.1995 6.55133 66.0382 6.258C65.8768 5.96466 65.6568 5.73 65.3782 5.554C65.1142 5.378 64.8062 5.25333 64.4542 5.18C64.1168 5.092 63.7648 5.04799 63.3982 5.04799H54.0262V9.536H63.3762ZM65.3782 10.526C65.1728 10.6433 64.9455 10.7313 64.6962 10.79C64.4468 10.8487 64.2122 10.9073 63.9922 10.966C64.8135 11.934 65.6348 12.8873 66.4562 13.826C67.2922 14.7647 68.1282 15.718 68.9642 16.686H67.1822L62.1002 10.856H54.0262V16.686H52.6622V3.706H63.3982C63.9995 3.706 64.5568 3.772 65.0702 3.904C65.5982 4.036 66.0455 4.24866 66.4122 4.54199C66.7935 4.83533 67.0868 5.20933 67.2922 5.66399C67.5122 6.11866 67.6222 6.66866 67.6222 7.314C67.6222 8.12066 67.4388 8.788 67.0722 9.316C66.7055 9.82933 66.1482 10.2327 65.4002 10.526H65.3782ZM68.8542 7.314C68.8542 6.478 68.7222 5.75933 68.4582 5.15799C68.1942 4.54199 67.8202 4.036 67.3362 3.64C66.8522 3.244 66.2728 2.95066 65.5982 2.76C64.9382 2.56933 64.2048 2.474 63.3982 2.474H51.4742V17.918H55.2362V12.066H61.5282L66.5882 17.918H71.6482L66.1042 11.56C67.9375 10.7533 68.8542 9.338 68.8542 7.314ZM50.9242 18.468V1.924H63.3982C63.9702 1.924 64.5202 1.968 65.0482 2.056C65.5762 2.12933 66.1042 2.29066 66.6322 2.54C67.1748 2.78933 67.7322 3.14866 68.3042 3.618C68.8908 4.08733 69.5142 4.71066 70.1742 5.488C70.5995 5.91333 70.9295 6.48533 71.1642 7.204C71.4135 7.908 71.5382 8.678 71.5382 9.514C71.5382 10.482 71.3255 11.34 70.9002 12.088C70.4895 12.836 69.8882 13.4447 69.0962 13.914C69.5508 14.442 70.0275 14.992 70.5262 15.564C71.0248 16.136 71.5235 16.7153 72.0222 17.302C72.5208 17.874 73.0122 18.4387 73.4962 18.996C73.9948 19.568 74.4642 20.1033 74.9042 20.602H68.5682L66.3462 18.468L63.1342 14.75H57.9202V20.602H53.1902L50.9242 18.468ZM88.7262 9.536C89.0782 9.536 89.4228 9.49933 89.7602 9.426C90.0975 9.338 90.3982 9.206 90.6622 9.03C90.9408 8.854 91.1608 8.62666 91.3222 8.348C91.4835 8.05466 91.5642 7.71 91.5642 7.314C91.5642 6.90333 91.4835 6.55866 91.3222 6.28C91.1755 5.98666 90.9702 5.752 90.7062 5.576C90.4422 5.38533 90.1415 5.25333 89.8042 5.18C89.4668 5.092 89.1148 5.04799 88.7482 5.04799H79.3322V9.536H88.7262ZM88.7482 6.28C88.9095 6.28 89.0855 6.29466 89.2762 6.324C89.4668 6.35333 89.6428 6.412 89.8042 6.5C89.9655 6.57333 90.0975 6.676 90.2002 6.808C90.3028 6.94 90.3542 7.10866 90.3542 7.314C90.3542 7.51933 90.2955 7.688 90.1782 7.82C90.0755 7.93733 89.9362 8.04 89.7602 8.128C89.5988 8.20133 89.4228 8.25266 89.2322 8.282C89.0415 8.31133 88.8728 8.326 88.7262 8.326H80.5642V6.28H88.7482ZM89.9142 15.344C90.2662 15.344 90.6182 15.3073 90.9702 15.234C91.3222 15.146 91.6302 15.014 91.8942 14.838C92.1728 14.6473 92.3928 14.4127 92.5542 14.134C92.7302 13.8407 92.8182 13.4887 92.8182 13.078C92.8182 12.7113 92.7448 12.3887 92.5982 12.11C92.4515 11.8313 92.2535 11.604 92.0042 11.428C91.7548 11.2373 91.4688 11.098 91.1462 11.01C90.8382 10.9073 90.5155 10.856 90.1782 10.856H79.3322V15.344H89.9142ZM90.1782 12.066C90.3248 12.066 90.4788 12.088 90.6402 12.132C90.8162 12.1613 90.9702 12.22 91.1022 12.308C91.2488 12.3813 91.3662 12.484 91.4542 12.616C91.5422 12.748 91.5862 12.902 91.5862 13.078C91.5862 13.298 91.5275 13.474 91.4102 13.606C91.3075 13.738 91.1682 13.8407 90.9922 13.914C90.8308 13.9873 90.6475 14.0387 90.4422 14.068C90.2515 14.0973 90.0755 14.112 89.9142 14.112H80.5642V12.066H90.1782ZM88.7482 3.706C89.3495 3.706 89.9068 3.772 90.4202 3.904C90.9335 4.036 91.3735 4.24866 91.7402 4.54199C92.1215 4.83533 92.4148 5.20933 92.6202 5.66399C92.8402 6.11866 92.9575 6.66866 92.9722 7.314C92.9722 7.666 92.8915 8.00333 92.7302 8.326C92.5835 8.634 92.4002 8.90533 92.1802 9.14C91.9602 9.37466 91.7255 9.56533 91.4762 9.712C91.2268 9.844 91.0142 9.91733 90.8382 9.932C91.2342 9.96133 91.6302 10.064 92.0262 10.24C92.4222 10.4013 92.7742 10.6213 93.0822 10.9C93.4048 11.1787 93.6688 11.5013 93.8742 11.868C94.0795 12.2347 94.1822 12.638 94.1822 13.078C94.1822 13.738 94.0722 14.3027 93.8522 14.772C93.6322 15.2267 93.3242 15.6007 92.9282 15.894C92.5468 16.1727 92.0922 16.378 91.5642 16.51C91.0508 16.6273 90.5008 16.686 89.9142 16.686H78.0122V3.706H88.7482ZM89.9142 17.918C90.7062 17.918 91.4395 17.83 92.1142 17.654C92.7888 17.4633 93.3682 17.1773 93.8522 16.796C94.3362 16.4 94.7175 15.9013 94.9962 15.3C95.2748 14.684 95.4142 13.9433 95.4142 13.078C95.4142 12.3447 95.2088 11.692 94.7982 11.12C94.4022 10.548 93.8008 10.0933 92.9942 9.756C93.1702 9.60933 93.3315 9.44066 93.4782 9.25C93.6248 9.04466 93.7495 8.832 93.8522 8.612C93.9548 8.392 94.0355 8.172 94.0942 7.952C94.1528 7.71733 94.1822 7.50466 94.1822 7.314C94.1822 6.478 94.0502 5.75933 93.7862 5.15799C93.5222 4.54199 93.1482 4.036 92.6642 3.64C92.1948 3.244 91.6228 2.95066 90.9482 2.76C90.2882 2.56933 89.5548 2.474 88.7482 2.474H76.7802V17.918H89.9142ZM76.2302 1.924H88.7482C90.0682 1.924 91.2635 2.144 92.3342 2.584C93.4048 3.024 94.4022 3.794 95.3262 4.894C95.6342 5.26066 95.9128 5.71533 96.1622 6.258C96.4115 6.786 96.5875 7.34333 96.6902 7.93C96.7928 8.502 96.7928 9.06666 96.6902 9.624C96.6022 10.1813 96.3675 10.658 95.9862 11.054C96.3675 11.2007 96.6902 11.45 96.9542 11.802C97.2182 12.1393 97.4308 12.5133 97.5922 12.924C97.7682 13.3347 97.8928 13.7527 97.9662 14.178C98.0542 14.6033 98.0982 14.97 98.0982 15.278C98.0982 16.2313 97.9442 17.0453 97.6362 17.72C97.3428 18.38 96.9322 18.9227 96.4042 19.348C95.8762 19.788 95.2455 20.1033 94.5122 20.294C93.7788 20.4993 92.9795 20.602 92.1142 20.602H78.4962L76.2302 18.468V1.924ZM111.743 15.344C112.594 15.344 113.386 15.256 114.119 15.08C114.867 14.8893 115.512 14.596 116.055 14.2C116.612 13.7893 117.045 13.2613 117.353 12.616C117.661 11.956 117.815 11.1493 117.815 10.196C117.815 9.25733 117.654 8.458 117.331 7.798C117.023 7.138 116.598 6.61 116.055 6.214C115.512 5.80333 114.867 5.51 114.119 5.334C113.386 5.14333 112.594 5.04799 111.743 5.04799H109.323C108.458 5.04799 107.651 5.14333 106.903 5.334C106.17 5.51 105.532 5.80333 104.989 6.214C104.446 6.61 104.014 7.138 103.691 7.798C103.383 8.458 103.229 9.25733 103.229 10.196C103.229 11.1493 103.383 11.956 103.691 12.616C104.014 13.2613 104.446 13.7893 104.989 14.2C105.532 14.6107 106.17 14.904 106.903 15.08C107.651 15.256 108.458 15.344 109.323 15.344H111.743ZM109.323 14.112C108.663 14.112 108.04 14.046 107.453 13.914C106.866 13.782 106.353 13.5693 105.913 13.276C105.473 12.968 105.121 12.5647 104.857 12.066C104.593 11.5673 104.461 10.944 104.461 10.196C104.461 9.46266 104.593 8.84666 104.857 8.348C105.121 7.84933 105.473 7.446 105.913 7.138C106.368 6.83 106.888 6.60999 107.475 6.47799C108.062 6.346 108.678 6.28 109.323 6.28H111.743C112.388 6.28 113.004 6.346 113.591 6.47799C114.178 6.60999 114.691 6.83 115.131 7.138C115.571 7.446 115.923 7.84933 116.187 8.348C116.451 8.84666 116.583 9.46266 116.583 10.196C116.583 10.9293 116.451 11.5453 116.187 12.044C115.938 12.5427 115.593 12.946 115.153 13.254C114.713 13.562 114.2 13.782 113.613 13.914C113.026 14.046 112.403 14.112 111.743 14.112H109.323ZM101.843 10.196C101.843 9.008 102.026 8.00333 102.393 7.182C102.774 6.36066 103.295 5.69333 103.955 5.18C104.63 4.652 105.422 4.278 106.331 4.058C107.255 3.82333 108.252 3.706 109.323 3.706H111.743C112.814 3.706 113.804 3.82333 114.713 4.058C115.622 4.29266 116.407 4.66666 117.067 5.18C117.742 5.69333 118.262 6.36066 118.629 7.182C119.01 8.00333 119.201 9.008 119.201 10.196C119.201 11.384 119.01 12.3887 118.629 13.21C118.262 14.0313 117.742 14.6987 117.067 15.212C116.407 15.7253 115.622 16.0993 114.713 16.334C113.804 16.5687 112.814 16.686 111.743 16.686H109.323C108.252 16.686 107.255 16.576 106.331 16.356C105.422 16.1213 104.63 15.7473 103.955 15.234C103.295 14.706 102.774 14.0313 102.393 13.21C102.026 12.3887 101.843 11.384 101.843 10.196ZM100.611 10.196C100.611 11.5893 100.824 12.7773 101.249 13.76C101.689 14.728 102.29 15.52 103.053 16.136C103.83 16.752 104.747 17.2067 105.803 17.5C106.874 17.7787 108.047 17.918 109.323 17.918H111.743C113.019 17.918 114.185 17.7787 115.241 17.5C116.297 17.2067 117.206 16.752 117.969 16.136C118.746 15.52 119.348 14.728 119.773 13.76C120.198 12.7773 120.411 11.5893 120.411 10.196C120.411 8.80266 120.198 7.622 119.773 6.654C119.348 5.67133 118.746 4.872 117.969 4.256C117.206 3.64 116.297 3.19266 115.241 2.91399C114.185 2.62066 113.019 2.474 111.743 2.474H109.323C108.047 2.474 106.874 2.62066 105.803 2.91399C104.747 3.19266 103.83 3.64 103.053 4.256C102.29 4.872 101.689 5.67133 101.249 6.654C100.824 7.622 100.611 8.80266 100.611 10.196ZM100.061 10.196C100.061 8.7 100.288 7.43133 100.743 6.39C101.198 5.334 101.836 4.476 102.657 3.816C103.478 3.15599 104.454 2.67933 105.583 2.386C106.727 2.078 107.974 1.924 109.323 1.924H111.743C112.594 1.924 113.393 1.97533 114.141 2.078C114.904 2.16599 115.652 2.36399 116.385 2.672C117.118 2.96533 117.844 3.39066 118.563 3.948C119.296 4.49066 120.052 5.224 120.829 6.148C121.489 6.808 122.032 7.68066 122.457 8.766C122.882 9.85133 123.095 11.0613 123.095 12.396C123.095 13.8773 122.868 15.1387 122.413 16.18C121.973 17.2213 121.342 18.0647 120.521 18.71C119.714 19.37 118.746 19.8467 117.617 20.14C116.502 20.448 115.278 20.602 113.943 20.602H111.523C110.027 20.602 108.634 20.4333 107.343 20.096C106.052 19.7587 104.989 19.1793 104.153 18.358C103.317 17.6247 102.635 16.9353 102.107 16.29C101.579 15.63 101.161 14.9773 100.853 14.332C100.56 13.6867 100.354 13.0267 100.237 12.352C100.12 11.6773 100.061 10.9587 100.061 10.196ZM111.743 13.562C112.315 13.562 112.858 13.5107 113.371 13.408C113.899 13.2907 114.361 13.1 114.757 12.836C115.153 12.572 115.461 12.2273 115.681 11.802C115.916 11.362 116.033 10.8267 116.033 10.196C116.033 9.844 115.989 9.52133 115.901 9.228C115.3 9.052 114.647 8.964 113.943 8.964H111.523C110.936 8.964 110.379 9.02266 109.851 9.14C109.323 9.25733 108.854 9.448 108.443 9.712C108.047 9.976 107.732 10.328 107.497 10.768C107.262 11.208 107.145 11.7507 107.145 12.396C107.145 12.748 107.174 13.0413 107.233 13.276C107.541 13.3787 107.871 13.452 108.223 13.496C108.575 13.54 108.942 13.562 109.323 13.562H111.743ZM133.073 5.1704C133.241 5.1704 133.39 5.1176 133.522 5.012C133.654 4.8976 133.72 4.7524 133.72 4.5764C133.72 4.4004 133.654 4.2552 133.522 4.1408C133.399 4.0264 133.249 3.9692 133.073 3.9692H130.671V5.1704H133.073ZM134.301 4.5764C134.301 4.7348 134.27 4.8844 134.209 5.0252C134.147 5.166 134.059 5.2892 133.945 5.3948C133.839 5.5004 133.716 5.584 133.575 5.6456C133.434 5.7072 133.285 5.738 133.126 5.738L134.341 6.8468H133.522L132.427 5.7776H130.671V6.8468H129.998V3.3752H133.073C133.461 3.3752 133.76 3.4808 133.971 3.692C134.191 3.9032 134.301 4.198 134.301 4.5764ZM132.625 8.5496C133.153 8.5496 133.637 8.4836 134.077 8.3516C134.525 8.2108 134.913 8.0084 135.238 7.7444C135.564 7.4716 135.815 7.1328 135.991 6.728C136.175 6.3144 136.268 5.8304 136.268 5.276C136.268 4.7216 136.175 4.242 135.991 3.8372C135.806 3.4236 135.551 3.0804 135.225 2.8076C134.899 2.5348 134.512 2.3324 134.063 2.2004C133.623 2.0684 133.144 2.00239 132.625 2.00239H131.173C130.653 2.00239 130.169 2.0684 129.721 2.2004C129.272 2.3324 128.885 2.5348 128.559 2.8076C128.233 3.0716 127.978 3.4104 127.793 3.824C127.609 4.2376 127.516 4.7216 127.516 5.276C127.516 5.8304 127.609 6.3144 127.793 6.728C127.978 7.1416 128.233 7.4848 128.559 7.7576C128.885 8.0216 129.272 8.2196 129.721 8.3516C130.169 8.4836 130.653 8.5496 131.173 8.5496H132.625ZM126.685 5.276C126.685 4.5632 126.795 3.9604 127.015 3.4676C127.243 2.9748 127.556 2.5744 127.952 2.2664C128.357 1.9496 128.832 1.7252 129.377 1.5932C129.932 1.4524 130.53 1.382 131.173 1.382H132.625C133.267 1.382 133.861 1.4524 134.407 1.5932C134.952 1.734 135.423 1.9584 135.819 2.2664C136.224 2.5744 136.536 2.9748 136.756 3.4676C136.985 3.9604 137.099 4.5632 137.099 5.276C137.099 5.9888 136.985 6.5916 136.756 7.0844C136.536 7.5772 136.224 7.9776 135.819 8.2856C135.423 8.5936 134.952 8.818 134.407 8.9588C133.861 9.0996 133.267 9.17 132.625 9.17H131.173C130.53 9.17 129.932 9.104 129.377 8.972C128.832 8.8312 128.357 8.6068 127.952 8.2988C127.556 7.982 127.243 7.5772 127.015 7.0844C126.795 6.5916 126.685 5.9888 126.685 5.276ZM125.945 5.276C125.945 6.112 126.073 6.8248 126.328 7.4144C126.592 7.9952 126.953 8.4704 127.411 8.84C127.877 9.2096 128.427 9.4824 129.061 9.6584C129.703 9.8256 130.407 9.9092 131.173 9.9092H132.625C133.39 9.9092 134.09 9.8256 134.723 9.6584C135.357 9.4824 135.903 9.2096 136.36 8.84C136.827 8.4704 137.187 7.9952 137.443 7.4144C137.698 6.8248 137.825 6.112 137.825 5.276C137.825 4.44 137.698 3.7316 137.443 3.1508C137.187 2.5612 136.827 2.0816 136.36 1.712C135.903 1.3424 135.357 1.07399 134.723 0.906795C134.09 0.730795 133.39 0.642795 132.625 0.642795H131.173C130.407 0.642795 129.703 0.730795 129.061 0.906795C128.427 1.07399 127.877 1.3424 127.411 1.712C126.953 2.0816 126.592 2.5612 126.328 3.1508C126.073 3.7316 125.945 4.44 125.945 5.276ZM125.615 5.276C125.615 4.3784 125.752 3.6172 126.025 2.9924C126.297 2.3588 126.68 1.844 127.173 1.448C127.666 1.05199 128.251 0.765995 128.929 0.589995C129.615 0.405195 130.363 0.312795 131.173 0.312795H132.625C133.135 0.312795 133.623 0.343595 134.09 0.405195C134.556 0.466795 135.018 0.589995 135.476 0.774795C135.933 0.959595 136.387 1.2236 136.835 1.5668C137.284 1.90119 137.742 2.3456 138.208 2.9C138.604 3.296 138.908 3.8108 139.119 4.4444C139.33 5.078 139.436 5.7952 139.436 6.596C139.436 7.4848 139.299 8.2416 139.027 8.8664C138.763 9.4912 138.384 9.9972 137.891 10.3844C137.407 10.7804 136.827 11.0664 136.149 11.2424C135.48 11.4272 134.745 11.5196 133.945 11.5196H132.493C131.595 11.5196 130.772 11.4184 130.024 11.216C129.276 11.0224 128.651 10.6792 128.15 10.1864C127.648 9.7464 127.235 9.3328 126.909 8.9456C126.583 8.5496 126.324 8.158 126.13 7.7708C125.945 7.3748 125.813 6.9744 125.734 6.5696C125.655 6.1648 125.615 5.7336 125.615 5.276Z" fill="#4CFF94"/>
</svg>
