<svg width="16" height="16" viewBox="0 0 16 16" fill="none" xmlns="http://www.w3.org/2000/svg">
<g clip-path="url(#clip0_2510_10016)">
<path d="M8.00016 14.6667C4.31816 14.6667 1.3335 11.682 1.3335 8.00001C1.3335 4.31801 4.31816 1.33334 8.00016 1.33334C11.6822 1.33334 14.6668 4.31801 14.6668 8.00001C14.6668 11.682 11.6822 14.6667 8.00016 14.6667ZM8.00016 13.3333C9.41465 13.3333 10.7712 12.7714 11.7714 11.7712C12.7716 10.7711 13.3335 9.4145 13.3335 8.00001C13.3335 6.58552 12.7716 5.22897 11.7714 4.22877C10.7712 3.22858 9.41465 2.66668 8.00016 2.66668C6.58568 2.66668 5.22912 3.22858 4.22893 4.22877C3.22873 5.22897 2.66683 6.58552 2.66683 8.00001C2.66683 9.4145 3.22873 10.7711 4.22893 11.7712C5.22912 12.7714 6.58568 13.3333 8.00016 13.3333Z" fill="#DEDEDE"/>
</g>
<defs>
<clipPath id="clip0_2510_10016">
<rect width="16" height="16" fill="white"/>
</clipPath>
</defs>
</svg>
