<svg width="32" height="36" viewBox="0 0 32 36" fill="none" xmlns="http://www.w3.org/2000/svg">
<path d="M18.6341 20.7526L16.8903 25.5372C16.8471 25.6669 16.8471 25.811 16.8903 25.9551L19.8879 34.1841L23.3611 32.1809L19.1962 20.7526C19.0953 20.4932 18.735 20.4932 18.6341 20.7526Z" fill="white"/>
<path d="M22.1361 12.7109C22.0352 12.4515 21.675 12.4515 21.5741 12.7109L19.8303 17.4956C19.787 17.6253 19.787 17.7694 19.8303 17.9135L24.7446 31.3883L28.2178 29.3851L22.1361 12.7253V12.7109Z" fill="white"/>
<path d="M15.968 2.2338C16.0544 2.2338 16.1409 2.26263 16.213 2.30586L29.4428 9.94397C29.6013 10.0304 29.6877 10.2034 29.6877 10.3763V25.6525C29.6877 25.8255 29.5869 25.9984 29.4428 26.0849L16.213 33.723C16.1409 33.7662 16.0544 33.7951 15.968 33.7951C15.8815 33.7951 15.795 33.7662 15.723 33.723L2.49319 26.0849C2.33467 25.9984 2.2482 25.8255 2.2482 25.6525V10.3619C2.2482 10.189 2.34908 10.016 2.49319 9.92956L15.723 2.29145C15.795 2.24821 15.8815 2.21939 15.968 2.21939V2.2338ZM15.968 1.52588e-05C15.4924 1.52588e-05 15.0312 0.115307 14.5989 0.360303L1.3691 7.99841C0.518815 8.48841 0 9.38192 0 10.3619V25.6381C0 26.6181 0.518815 27.5116 1.3691 28.0016L14.5989 35.6397C15.0168 35.8847 15.4924 36 15.968 36C16.4436 36 16.9047 35.8847 17.3371 35.6397L30.5669 28.0016C31.4171 27.5116 31.9359 26.6181 31.9359 25.6381V10.3619C31.9359 9.38192 31.4171 8.48841 30.5669 7.99841L17.3227 0.360303C16.9047 0.115307 16.4291 1.52588e-05 15.9536 1.52588e-05H15.968Z" fill="white"/>
<path d="M14.8437 9.28103H11.4858C11.2408 9.28103 11.0102 9.43956 10.9238 9.67014L3.73242 29.3851L7.2056 31.3883L15.1319 9.67014C15.204 9.46838 15.0599 9.26662 14.8581 9.26662L14.8437 9.28103Z" fill="white"/>
<path d="M20.7239 9.28103H17.366C17.121 9.28103 16.8904 9.43956 16.8039 9.67014L8.58936 32.1809L12.0625 34.1842L20.9977 9.67014C21.0697 9.46838 20.9256 9.26662 20.7239 9.26662V9.28103Z" fill="white"/>
</svg>
