<svg width="24" height="24" viewBox="0 0 24 24" fill="none" xmlns="http://www.w3.org/2000/svg">
<g clip-path="url(#clip0_435_9614)">
<path d="M2.16992 7.296V16.704C2.16992 17.3088 2.48672 17.856 3.01472 18.1632L11.1651 22.8672C11.6835 23.1648 12.3267 23.1648 12.8451 22.8672L20.9955 18.1632C21.5139 17.8656 21.8403 17.3088 21.8403 16.704V7.296C21.8403 6.6912 21.5235 6.144 20.9955 5.8368L12.8451 1.1328C12.3267 0.8352 11.6835 0.8352 11.1651 1.1328L3.01472 5.8368C2.49632 6.1344 2.17952 6.6912 2.17952 7.296H2.16992Z" fill="#213147"/>
<path d="M13.776 13.824L12.6144 17.0112C12.5856 17.0976 12.5856 17.1936 12.6144 17.2896L14.6112 22.7712L16.9248 21.4368L14.1504 13.824C14.0832 13.6512 13.8432 13.6512 13.776 13.824Z" fill="#12AAFF"/>
<path d="M16.1084 8.4672C16.0412 8.2944 15.8012 8.2944 15.734 8.4672L14.5724 11.6544C14.5436 11.7408 14.5436 11.8368 14.5724 11.9328L17.846 20.9088L20.1596 19.5744L16.1084 8.4768V8.4672Z" fill="#12AAFF"/>
<path d="M12.0001 1.488C12.0577 1.488 12.1153 1.5072 12.1633 1.536L20.9761 6.624C21.0817 6.6816 21.1393 6.7968 21.1393 6.912V17.088C21.1393 17.2032 21.0721 17.3184 20.9761 17.376L12.1633 22.464C12.1153 22.4928 12.0577 22.512 12.0001 22.512C11.9425 22.512 11.8849 22.4928 11.8369 22.464L3.02408 17.376C2.91848 17.3184 2.86088 17.2032 2.86088 17.088V6.9024C2.86088 6.7872 2.92808 6.672 3.02408 6.6144L11.8369 1.5264C11.8849 1.4976 11.9425 1.4784 12.0001 1.4784V1.488ZM12.0001 0C11.6833 0 11.3761 0.0768 11.0881 0.24L2.27528 5.328C1.70888 5.6544 1.36328 6.2496 1.36328 6.9024V17.0784C1.36328 17.7312 1.70888 18.3264 2.27528 18.6528L11.0881 23.7408C11.3665 23.904 11.6833 23.9808 12.0001 23.9808C12.3169 23.9808 12.6241 23.904 12.9121 23.7408L21.7249 18.6528C22.2913 18.3264 22.6369 17.7312 22.6369 17.0784V6.9024C22.6369 6.2496 22.2913 5.6544 21.7249 5.328L12.9025 0.24C12.6241 0.0768 12.3073 0 11.9905 0H12.0001Z" fill="#9DCCED"/>
<path d="M6.16309 20.9184L6.97909 18.6912L8.61109 20.0448L7.08469 21.4464L6.16309 20.9184Z" fill="#213147"/>
<path d="M11.2512 6.1824H9.01441C8.85121 6.1824 8.69761 6.288 8.64001 6.4416L3.84961 19.5744L6.16321 20.9088L11.4432 6.4416C11.4912 6.3072 11.3952 6.1728 11.2608 6.1728L11.2512 6.1824Z" fill="white"/>
<path d="M15.1682 6.1824H12.9314C12.7682 6.1824 12.6146 6.288 12.557 6.4416L7.08496 21.4368L9.39856 22.7712L15.3506 6.4416C15.3986 6.3072 15.3026 6.1728 15.1682 6.1728V6.1824Z" fill="white"/>
</g>
<defs>
<clipPath id="clip0_435_9614">
<rect width="24" height="24" fill="white"/>
</clipPath>
</defs>
</svg>
