<svg width="16" height="16" viewBox="0 0 16 16" fill="none" xmlns="http://www.w3.org/2000/svg">
<g clip-path="url(#clip0_990_11869)">
<path d="M11.9999 4.66667H13.9999C14.1767 4.66667 14.3463 4.7369 14.4713 4.86193C14.5963 4.98695 14.6666 5.15652 14.6666 5.33333V13.3333C14.6666 13.5101 14.5963 13.6797 14.4713 13.8047C14.3463 13.9298 14.1767 14 13.9999 14H1.99992C1.82311 14 1.65354 13.9298 1.52851 13.8047C1.40349 13.6797 1.33325 13.5101 1.33325 13.3333V2.66667C1.33325 2.48986 1.40349 2.32029 1.52851 2.19526C1.65354 2.07024 1.82311 2 1.99992 2H11.9999V4.66667ZM2.66659 6V12.6667H13.3333V6H2.66659ZM2.66659 3.33333V4.66667H10.6666V3.33333H2.66659ZM9.99992 8.66667H11.9999V10H9.99992V8.66667Z" fill="#9FA2A8"/>
</g>
<defs>
<clipPath id="clip0_990_11869">
<rect width="16" height="16" fill="white"/>
</clipPath>
</defs>
</svg>
