<svg width="37" height="37" viewBox="0 0 37 37" fill="none" xmlns="http://www.w3.org/2000/svg">
<path d="M34.4947 18.411C34.4947 15.1397 33.5119 12.0959 31.8285 9.5525L36.8219 4.55904L32.3312 0.0683391L27.3514 5.04815C24.7944 3.33058 21.7187 2.32734 18.4132 2.32734C15.1419 2.32734 12.098 3.31011 9.55468 4.99355L4.55895 9.15527e-05L0.0682475 4.49079L5.04806 9.4706C3.33049 12.0276 2.32725 15.1033 2.32725 18.4088C2.32725 21.6801 3.31001 24.724 4.99346 27.2673L0 32.2631L4.4907 36.7538L9.47051 31.774C12.0275 33.4915 15.1032 34.4948 18.4087 34.4948C21.68 34.4948 24.7239 33.512 27.2672 31.8286L32.263 36.8243L36.7537 32.3336L31.7739 27.3538C33.4914 24.7922 34.4947 21.7165 34.4947 18.411ZM8.68111 18.411C8.68111 13.0445 13.0467 8.67893 18.4132 8.67893C23.7798 8.67893 28.1454 13.0445 28.1454 18.411C28.1454 23.7776 23.7798 28.1432 18.4132 28.1432C13.0467 28.1432 8.68111 23.7776 8.68111 18.411Z" fill="white"/>
</svg>
