<svg width="16" height="16" viewBox="0 0 16 16" fill="none" xmlns="http://www.w3.org/2000/svg">
<g clip-path="url(#clip0_4_10343)">
<path d="M8.00016 14.6667C4.31816 14.6667 1.3335 11.682 1.3335 8.00001C1.3335 4.31801 4.31816 1.33334 8.00016 1.33334C11.6822 1.33334 14.6668 4.31801 14.6668 8.00001C14.6668 11.682 11.6822 14.6667 8.00016 14.6667ZM8.00016 13.3333C9.41465 13.3333 10.7712 12.7714 11.7714 11.7712C12.7716 10.7711 13.3335 9.4145 13.3335 8.00001C13.3335 6.58552 12.7716 5.22897 11.7714 4.22877C10.7712 3.22858 9.41465 2.66668 8.00016 2.66668C6.58567 2.66668 5.22912 3.22858 4.22893 4.22877C3.22873 5.22897 2.66683 6.58552 2.66683 8.00001C2.66683 9.4145 3.22873 10.7711 4.22893 11.7712C5.22912 12.7714 6.58567 13.3333 8.00016 13.3333V13.3333ZM7.3335 10H8.66683V11.3333H7.3335V10ZM8.66683 8.90334V9.33334H7.3335V8.33334C7.3335 8.15653 7.40373 7.98696 7.52876 7.86194C7.65378 7.73692 7.82335 7.66668 8.00016 7.66668C8.18955 7.66667 8.37504 7.61287 8.53505 7.51156C8.69506 7.41025 8.82301 7.26559 8.90401 7.0944C8.98501 6.92321 9.01574 6.73254 8.99262 6.54457C8.96949 6.3566 8.89347 6.17907 8.77338 6.03262C8.6533 5.88617 8.4941 5.77683 8.31431 5.71732C8.13452 5.65782 7.94152 5.65059 7.75778 5.69648C7.57404 5.74237 7.40711 5.8395 7.27641 5.97655C7.14571 6.11361 7.05662 6.28497 7.0195 6.47068L5.7115 6.20868C5.79258 5.8034 5.97984 5.42692 6.25411 5.11773C6.52838 4.80854 6.87984 4.57773 7.27256 4.44889C7.66527 4.32005 8.08515 4.2978 8.48928 4.38442C8.89342 4.47104 9.2673 4.66342 9.57271 4.94189C9.87812 5.22037 10.1041 5.57495 10.2276 5.96939C10.351 6.36382 10.3675 6.78397 10.2754 7.18688C10.1833 7.58979 9.9858 7.96101 9.70318 8.26259C9.42055 8.56416 9.06292 8.78528 8.66683 8.90334V8.90334Z" fill="#DEDEDE"/>
</g>
<defs>
<clipPath id="clip0_4_10343">
<rect width="16" height="16" fill="white"/>
</clipPath>
</defs>
</svg>
