<svg width="37" height="36" viewBox="0 0 37 36" fill="none" xmlns="http://www.w3.org/2000/svg">
<path d="M25.1434 21.217C25.1434 17.6469 23.0013 16.4228 18.717 15.9129C15.6568 15.5048 15.0448 14.6888 15.0448 13.2605C15.0448 11.8323 16.0649 10.9145 18.1049 10.9145C19.9411 10.9145 20.9612 11.5265 21.4712 13.0566C21.5732 13.3626 21.8793 13.5666 22.1853 13.5666H23.8172C24.2253 13.5666 24.5313 13.2605 24.5313 12.8527V12.7506C24.1232 10.5064 22.2871 8.77235 19.9411 8.56842V6.12026C19.9411 5.71215 19.635 5.40613 19.1251 5.30405H17.595C17.1869 5.30405 16.8809 5.61007 16.7788 6.12026V8.46633C13.7186 8.87443 11.7806 10.9145 11.7806 13.4647C11.7806 16.8309 13.8207 18.1569 18.1049 18.6671C20.9612 19.177 21.8793 19.789 21.8793 21.4212C21.8793 23.0534 20.451 24.1754 18.5131 24.1754C15.8607 24.1754 14.9427 23.0532 14.6366 21.5231C14.5348 21.1152 14.2288 20.911 13.9228 20.911H12.1885C11.7806 20.911 11.4746 21.217 11.4746 21.6252V21.7272C11.8825 24.2772 13.5147 26.1134 16.8809 26.6236V29.0717C16.8809 29.4796 17.1869 29.7856 17.6968 29.8877H19.2269C19.635 29.8877 19.9411 29.5817 20.0431 29.0717V26.6236C23.1033 26.1134 25.1434 23.9712 25.1434 21.217Z" fill="white"/>
<path d="M13.2086 31.9278C5.25213 29.0718 1.17179 20.1972 4.13014 12.3426C5.66024 8.05828 9.02645 4.79416 13.2086 3.26406C13.6167 3.06013 13.8207 2.75411 13.8207 2.24392V0.815908C13.8207 0.407801 13.6167 0.101782 13.2086 -6.10352e-05C13.1065 -6.10352e-05 12.9026 -6.16889e-05 12.8005 0.101782C3.11 3.16197 -2.19442 13.4648 0.865774 23.1553C2.70189 28.8676 7.08825 33.2539 12.8005 35.0901C13.2086 35.294 13.6167 35.0901 13.7186 34.682C13.8207 34.5801 13.8207 34.478 13.8207 34.2741V32.8458C13.8207 32.5398 13.5147 32.132 13.2086 31.9278ZM24.0214 0.101782C23.6133 -0.10215 23.2052 0.101782 23.1033 0.509889C23.0012 0.611977 23.0012 0.713821 23.0012 0.917997V2.346C23.0012 2.75411 23.3073 3.16197 23.6133 3.36615C31.5698 6.22217 35.6501 15.0967 32.6918 22.9514C31.1617 27.2357 27.7955 30.4998 23.6133 32.0299C23.2052 32.2338 23.0012 32.5398 23.0012 33.05V34.478C23.0012 34.8861 23.2052 35.1922 23.6133 35.294C23.7154 35.294 23.9193 35.294 24.0214 35.1922C33.7119 32.132 39.0163 21.8291 35.9561 12.1386C34.12 6.32425 29.6316 1.9379 24.0214 0.101782Z" fill="white"/>
</svg>
