<svg width="37" height="34" viewBox="0 0 37 34" fill="none" xmlns="http://www.w3.org/2000/svg">
<path fill-rule="evenodd" clip-rule="evenodd" d="M22.157 18.2323C21.9477 18.248 20.8667 18.3125 18.4554 18.3125C16.5375 18.3125 15.1758 18.255 14.6981 18.2323C7.28627 17.9063 1.75401 16.6161 1.75401 15.0713C1.75401 13.5265 7.28627 12.238 14.6981 11.9068V16.9473C15.1828 16.9822 16.5706 17.0642 18.4885 17.0642C20.79 17.0642 21.9425 16.9683 22.15 16.9491V11.9102C29.5461 12.2398 35.0662 13.53 35.0662 15.0713C35.0662 16.6126 29.5478 17.9028 22.15 18.2306L22.157 18.2323ZM22.157 11.3889V6.87837H32.4787V9.15527e-05H4.3763V6.87837H14.6963V11.3872C6.30814 11.7725 0 13.4341 0 15.4252C0 17.4164 6.30814 19.0762 14.6963 19.4633V33.9173H22.1552V19.458C30.5242 19.0727 36.8219 17.4129 36.8219 15.4235C36.8219 13.4341 30.5295 11.7742 22.1552 11.3872L22.157 11.3889Z" fill="white"/>
</svg>
