<svg width="24" height="24" viewBox="0 0 24 24" fill="none" xmlns="http://www.w3.org/2000/svg">
<path d="M6.31699 5.061L12 2L17.683 5.061L15.6 6.194L12 4.261L8.40599 6.194L6.31699 5.061ZM17.683 8.928L15.6 7.794L12 9.728L8.40599 7.794L6.31699 8.928V11.188L9.90499 13.122V16.983L12 18.117L14.09 16.983V13.123L17.683 11.189V8.928ZM17.683 15.056V12.789L15.6 13.922V16.183L17.683 15.056ZM19.17 15.856L15.576 17.783V20.05L21.259 16.983V10.861L19.17 11.99V15.856ZM17.081 6.994L19.164 8.128V10.388L21.259 9.261V6.994L19.17 5.861L17.081 7V6.994ZM9.90499 18.606V20.866L12 22L14.09 20.867V18.61L12 19.74L9.90999 18.606H9.90499ZM6.31699 15.05L8.39999 16.183V13.923L6.31699 12.789V15.056V15.05ZM9.90499 6.994L12 8.128L14.09 6.994L12 5.861L9.90999 7L9.90499 6.994ZM4.82999 8.128L6.91899 6.994L4.83599 5.861L2.73999 7V9.267L4.82899 10.395L4.82999 8.128ZM4.82999 11.989L2.73999 10.861V16.983L8.42399 20.05V17.778L4.83599 15.85V11.983L4.82999 11.989Z" fill="white"/>
</svg>
