<svg width="28" height="36" viewBox="0 0 28 36" fill="none" xmlns="http://www.w3.org/2000/svg">
<path d="M26.9826 14.4723C27.5454 10.6896 24.6806 8.65621 20.7632 7.29975L22.034 2.17567L18.9312 1.39844L17.6941 6.38761C16.8784 6.18309 16.0407 5.99038 15.2081 5.79934L16.4542 0.777242L13.3534 1.52588e-05L12.0818 5.12243C11.4068 4.96793 10.7438 4.81523 10.1006 4.65434L10.1042 4.63822L5.82538 3.56409L4.99999 6.89557C4.99999 6.89557 7.30201 7.42604 7.25349 7.45869C8.50995 7.77394 8.73717 8.61008 8.69944 9.27282L7.25184 15.1104C7.33835 15.1324 7.45058 15.1644 7.57442 15.2144C7.4709 15.1886 7.36074 15.1604 7.24645 15.1329L5.2174 23.3104C5.06385 23.6942 4.6741 24.2701 3.79564 24.0514C3.82674 24.0967 1.54048 23.4856 1.54048 23.4856L0 27.0561L4.03778 28.068C4.78895 28.2573 5.52505 28.4555 6.24996 28.6418L4.96599 33.8246L8.0652 34.6019L9.33672 29.474C10.1834 29.7051 11.005 29.9182 11.8094 30.1191L10.5422 35.2228L13.6451 36L14.9289 30.8269C20.2199 31.8335 24.1982 31.4277 25.8728 26.6168C27.2221 22.7434 25.8056 20.5093 23.0221 19.0523C25.0494 18.5823 26.5765 17.2418 26.9837 14.4728L26.9827 14.4721L26.9826 14.4723ZM19.8934 24.4657C18.9345 28.339 12.4473 26.2452 10.344 25.7202L12.0478 18.8538C14.151 19.3816 20.8956 20.4262 19.8936 24.4657H19.8934ZM20.853 14.4162C19.9783 17.9394 14.5789 16.1495 12.8273 15.7106L14.3721 9.48318C16.1236 9.92209 21.7642 10.7413 20.8533 14.4162H20.853Z" fill="white"/>
</svg>
