<svg width="24" height="24" viewBox="0 0 24 24" fill="none" xmlns="http://www.w3.org/2000/svg">
<rect width="24" height="24" rx="4" fill="#1E1E1E"/>
<path d="M15.4999 6.33325L13.8333 8.83325C13.4999 8.65592 12.8333 8.33325 11.9999 8.33325C9.99992 8.33325 8.33325 9.99992 8.33325 11.8333C8.33325 13.6666 9.66659 15.6666 11.9999 15.6666C13.8666 15.6666 15.1666 14.3333 15.1666 13.3333H11.9999V10.9999H18.6666C18.8333 13.4999 18.0966 14.9666 17.1666 16.1666C15.7746 17.9626 13.7236 18.6666 11.9999 18.6666C8.66659 18.6666 5.33325 15.9999 5.33325 11.8333C5.33325 7.83325 8.90792 5.33325 11.6666 5.33325C14.4253 5.33325 15.4999 6.33325 15.4999 6.33325Z" fill="#B3B3B3"/>
<path d="M13.8334 8.83341L13.5204 9.42208C13.6664 9.4997 13.8361 9.52027 13.9965 9.47979C14.1568 9.43932 14.2964 9.3407 14.3881 9.20308L13.8334 8.83341ZM15.5001 6.33341L16.0547 6.70341C16.1425 6.57173 16.1806 6.4131 16.1622 6.2559C16.1437 6.09871 16.07 5.9532 15.9541 5.84541L15.5001 6.33341ZM18.6667 11.0001L19.3321 10.9557C19.3208 10.787 19.2458 10.6288 19.1223 10.5132C18.9988 10.3977 18.8359 10.3334 18.6667 10.3334V11.0001ZM12.0001 11.0001V10.3334C11.8233 10.3334 11.6537 10.4037 11.5287 10.5287C11.4037 10.6537 11.3334 10.8233 11.3334 11.0001H12.0001ZM12.0001 13.3334H11.3334C11.3334 13.5102 11.4037 13.6798 11.5287 13.8048C11.6537 13.9298 11.8233 14.0001 12.0001 14.0001V13.3334ZM15.1667 13.3334H15.8334C15.8334 13.1566 15.7632 12.987 15.6382 12.862C15.5131 12.737 15.3436 12.6667 15.1667 12.6667V13.3334ZM14.3881 9.20308L16.0547 6.70341L14.9454 5.96341L13.2787 8.46341L14.3881 9.20308ZM15.5001 6.33341C15.6523 6.17153 15.8034 6.00864 15.9534 5.84475L15.9531 5.84408L15.9484 5.84008L15.9211 5.81608C15.8355 5.7454 15.746 5.67952 15.6531 5.61875C15.4052 5.46013 15.143 5.32531 14.8697 5.21608C14.1727 4.93208 13.1284 4.66675 11.6667 4.66675V6.00008C12.9634 6.00008 13.8361 6.23475 14.3664 6.45075C14.5612 6.52798 14.7482 6.6234 14.9251 6.73575C14.9693 6.76459 15.0121 6.79551 15.0534 6.82841L15.0527 6.82775L15.0501 6.82541L15.0481 6.82341L15.0471 6.82241L15.0464 6.82208C15.0464 6.82175 15.0457 6.82141 15.5001 6.33341ZM11.6667 4.66675C10.1024 4.66675 8.36341 5.36708 7.01741 6.59008C5.65941 7.82341 4.66675 9.62008 4.66675 11.8334H6.00008C6.00008 10.0464 6.79475 8.59341 7.91375 7.57675C9.04475 6.55008 10.4724 6.00008 11.6667 6.00008V4.66675ZM4.66675 11.8334C4.66675 16.4001 8.33108 19.3334 12.0001 19.3334V18.0001C9.00241 18.0001 6.00008 15.6001 6.00008 11.8334H4.66675ZM18.6667 11.0001V10.3334H12.0001V11.6667H18.6667V11.0001ZM11.3334 11.0001V13.3334H12.6667V11.0001H11.3334ZM12.0001 14.0001H15.1667V12.6667H12.0001V14.0001ZM14.5001 13.3334C14.5001 13.5661 14.3261 13.9777 13.8604 14.3601C13.4161 14.7247 12.7724 15.0001 12.0001 15.0001V16.3334C13.0944 16.3334 14.0341 15.9424 14.7064 15.3904C15.3574 14.8564 15.8334 14.1007 15.8334 13.3334H14.5001ZM12.0001 15.0001C10.1277 15.0001 9.00008 13.3987 9.00008 11.8334H7.66675C7.66675 13.9347 9.20575 16.3334 12.0001 16.3334V15.0001ZM9.00008 11.8334C9.00008 10.3881 10.3481 9.00008 12.0001 9.00008V7.66675C9.65208 7.66675 7.66675 9.61208 7.66675 11.8334H9.00008ZM12.0001 9.00008C12.6667 9.00008 13.2151 9.25975 13.5204 9.42208L14.1464 8.24475C13.7851 8.05275 12.9997 7.66675 12.0001 7.66675V9.00008ZM12.0001 19.3334C13.8907 19.3334 16.1534 18.5627 17.6934 16.5751L16.6401 15.7584C15.3961 17.3631 13.5567 18.0001 12.0001 18.0001V19.3334ZM17.6934 16.5751C18.7061 15.2687 19.5111 13.6451 19.3321 10.9557L18.0014 11.0444C18.1557 13.3554 17.4874 14.6651 16.6401 15.7584L17.6934 16.5751Z" fill="#B3B3B3"/>
</svg>
